<svg width="35" height="35" viewBox="0 0 35 35" fill="hsl(262.1 83.3% 57.8%)" xmlns="http://www.w3.org/2000/svg">
<path d="M30.8747 20.6001V5.23148C30.8747 3.97607 29.857 2.95849 28.6017 2.95849H26.3288V1.82202C26.3288 0.880388 25.5656 0.117188 24.6239 0.117188H24.0559C23.1142 0.117188 22.351 0.880388 22.351 1.82202V2.95849H17.2367V1.82202C17.2367 0.880388 16.4736 0.117188 15.5322 0.117188H14.9637C14.0225 0.117188 13.259 0.880388 13.259 1.82202V2.95849H8.71316V1.82202C8.71316 0.880388 7.94992 0.117188 7.00845 0.117188H6.44022C5.49875 0.117188 4.73534 0.880388 4.73534 1.82202V2.95849H2.46239C1.20705 2.95849 0.189453 3.97607 0.189453 5.23148V26.8246C0.189453 28.08 1.20705 29.0975 2.46239 29.0975H19.8672C20.8692 32.1953 23.7809 34.2717 27.0357 34.2099C30.2909 34.1483 33.1219 31.9627 34.0058 28.8297C34.8894 25.6962 33.6176 22.3537 30.8747 20.6001ZM23.4875 1.82202C23.4875 1.50806 23.7419 1.25366 24.0559 1.25366H24.6239C24.9379 1.25366 25.1923 1.50806 25.1923 1.82202V5.23148C25.1923 5.54507 24.9379 5.79954 24.6239 5.79954H24.0559C23.7419 5.79954 23.4875 5.54507 23.4875 5.23148V1.82202ZM14.3955 1.82202C14.3955 1.50806 14.6502 1.25366 14.9637 1.25366H15.5322C15.8459 1.25366 16.1002 1.50806 16.1002 1.82202V5.23148C16.1002 5.54507 15.8459 5.79954 15.5322 5.79954H14.9637C14.6502 5.79954 14.3955 5.54507 14.3955 5.23148V1.82202ZM5.87181 1.82202C5.87181 1.50806 6.12645 1.25366 6.44022 1.25366H7.00845C7.32222 1.25366 7.57669 1.50806 7.57669 1.82202V5.23148C7.57669 5.54507 7.32222 5.79954 7.00845 5.79954H6.44022C6.12645 5.79954 5.87181 5.54507 5.87181 5.23148V1.82202ZM1.32592 5.23148C1.32592 4.60378 1.83472 4.09501 2.46239 4.09501H4.73534V5.23148C4.73534 6.17278 5.49875 6.93601 6.44022 6.93601H7.00845C7.94992 6.93601 8.71316 6.17278 8.71316 5.23148V4.09501H13.259V5.23148C13.259 6.17278 14.0225 6.93601 14.9637 6.93601H15.5322C16.4736 6.93601 17.2367 6.17278 17.2367 5.23148V4.09501H22.351V5.23148C22.351 6.17278 23.1142 6.93601 24.0559 6.93601H24.6239C25.5656 6.93601 26.3288 6.17278 26.3288 5.23148V4.09501H28.6017C29.2295 4.09501 29.7382 4.60378 29.7382 5.23148V9.20913H1.32592V5.23148ZM2.46239 27.9611C1.83472 27.9611 1.32592 27.4523 1.32592 26.8246V10.3456H29.7382V20.0017C29.72 19.9943 29.7008 19.9887 29.6812 19.9814C29.5632 19.9329 29.4426 19.8904 29.3223 19.8489C29.2653 19.8284 29.2086 19.8058 29.1477 19.787C28.9669 19.7301 28.7846 19.6777 28.6003 19.6347C26.4026 19.1169 24.0887 19.6317 22.3175 21.0325C20.5462 22.4333 19.5123 24.5665 19.5096 26.8246C19.5116 27.1054 19.5292 27.3854 19.5633 27.6641C19.5695 27.7207 19.5753 27.7777 19.583 27.8344C19.5887 27.8765 19.5917 27.9198 19.5979 27.9611H2.46239ZM26.8969 33.0754C24.1859 33.0842 21.7808 31.3375 20.9507 28.7566C20.9156 28.6403 20.8797 28.5247 20.8475 28.3821C20.7123 27.8742 20.6447 27.3503 20.6461 26.8246C20.6486 24.9134 21.5239 23.1083 23.0232 21.923C24.5223 20.7376 26.4807 20.3022 28.3407 20.741C28.5112 20.7807 28.6785 20.8295 28.8444 20.8842C29.2543 21.0171 29.6498 21.1927 30.0236 21.4077C32.4777 22.8205 33.6755 25.7072 32.9424 28.4425C32.2093 31.178 29.7289 33.0787 26.8969 33.0754Z" />
<path d="M9.28159 12.0508H5.87182C5.24447 12.0508 4.73535 12.5595 4.73535 13.1873V16.5967C4.73535 17.2242 5.24447 17.7333 5.87182 17.7333H9.28159C9.90929 17.7333 10.4181 17.2242 10.4181 16.5967V13.1873C10.4181 12.5595 9.90929 12.0508 9.28159 12.0508ZM5.87182 16.5967V13.1873H9.28159V16.5967H5.87182Z"/>
<path d="M17.2368 12.0508H13.8274C13.1997 12.0508 12.6909 12.5595 12.6909 13.1873V16.5967C12.6909 17.2242 13.1997 17.7333 13.8274 17.7333H17.2368C17.8645 17.7333 18.3733 17.2242 18.3733 16.5967V13.1873C18.3733 12.5595 17.8645 12.0508 17.2368 12.0508ZM13.8274 16.5967V13.1873H17.2368V16.5967H13.8274Z" />
<path d="M9.28159 18.8711H5.87182C5.24447 18.8711 4.73535 19.3799 4.73535 20.0076V23.417C4.73535 24.0447 5.24447 24.5534 5.87182 24.5534H9.28159C9.90929 24.5534 10.4181 24.0447 10.4181 23.417V20.0076C10.4181 19.3799 9.90929 18.8711 9.28159 18.8711ZM5.87182 23.417V20.0076H9.28159V23.417H5.87182Z"/>
<path d="M17.2368 18.8711H13.8274C13.1997 18.8711 12.6909 19.3799 12.6909 20.0076V23.417C12.6909 24.0447 13.1997 24.5534 13.8274 24.5534H17.2368C17.8645 24.5534 18.3733 24.0447 18.3733 23.417V20.0076C18.3733 19.3799 17.8645 18.8711 17.2368 18.8711ZM13.8274 23.417V20.0076H17.2368V23.417H13.8274Z" />
<path d="M21.783 17.7333H25.1925C25.8203 17.7333 26.329 17.2242 26.329 16.5967V13.1873C26.329 12.5595 25.8203 12.0508 25.1925 12.0508H21.783C21.1553 12.0508 20.6465 12.5595 20.6465 13.1873V16.5967C20.6465 17.2242 21.1553 17.7333 21.783 17.7333ZM21.783 13.1873H25.1925V16.5967H21.783V13.1873Z" />
<path d="M29.3179 24.1704L25.6064 28.2543L24.4766 27.0114C24.2654 26.7795 23.9059 26.7622 23.6737 26.9734C23.4416 27.1847 23.4245 27.5441 23.6355 27.7764L25.1851 29.4811C25.2928 29.5998 25.4458 29.6676 25.606 29.6676C25.7663 29.6676 25.9189 29.5998 26.0269 29.4811L30.159 24.9352C30.2957 24.785 30.3418 24.5733 30.2798 24.3798C30.2183 24.1863 30.058 24.0407 29.8595 23.9974C29.6611 23.9542 29.4548 24.02 29.3179 24.1704Z"/>
</svg>
