<svg width="38" height="38" viewBox="0 0 38 38" fill="hsl(262.1 83.3% 57.8%)" xmlns="http://www.w3.org/2000/svg">
<path d="M35.9496 27.377H19.4158L31.7511 16.2033C32.4448 15.5747 32.498 14.4989 31.8697 13.8052L27.1509 8.59607C26.8465 8.26 26.4295 8.06255 25.9765 8.04019C25.5235 8.01753 25.089 8.17316 24.753 8.47759L15.6496 16.7238L18.9184 4.94151C19.0396 4.50448 18.9835 4.04652 18.7603 3.65175C18.5368 3.25706 18.1733 2.97298 17.7364 2.85167L10.9636 0.972665C10.5267 0.851501 10.0686 0.90767 9.67397 1.13082C9.2792 1.35411 8.99508 1.71767 8.87385 2.15472L1.00847 30.539L1.0079 30.5415C0.738202 31.1704 0.588379 31.8626 0.588379 32.5889C0.588379 35.4629 2.92649 37.801 5.80035 37.801H35.9496C36.8857 37.801 37.6472 37.0393 37.6472 36.1033V29.0747C37.6472 28.1387 36.8856 27.377 35.9496 27.377ZM23.598 35.2794C23.2982 35.2794 23.0552 35.5224 23.0552 35.8222V36.7153H19.6387V28.4627H23.0552V33.6507C23.0552 33.9506 23.2982 34.1937 23.598 34.1937C23.8978 34.1937 24.1408 33.9506 24.1408 33.6507V28.4627H27.5571V36.7153H24.1408V35.8222C24.1408 35.5224 23.8978 35.2794 23.598 35.2794ZM4.06575 23.5466L7.1677 24.407C7.1677 24.407 2.79592 28.3324 2.72316 28.3859L4.06575 23.5466ZM5.26937 19.2082L11.1163 20.8303L8.09262 23.5693C8.04356 23.5351 7.9885 23.5081 7.92761 23.4911L4.35601 22.5003L5.26937 19.2082ZM15.9254 17.9388L21.4657 24.0551L18.9337 26.3487L13.3934 20.2324L15.9254 17.9388ZM19.2621 14.9163L24.8024 21.0326L22.2704 23.3261L16.7301 17.2098L19.2621 14.9163ZM22.5989 11.8938L28.1391 18.0101L25.6071 20.3037L20.0668 14.1874L22.5989 11.8938ZM17.7987 27.377H13.7907L10.0567 23.255L12.5887 20.9614L18.1292 27.0777L17.7987 27.377ZM9.25203 23.9838L12.3258 27.377C12.3258 27.377 5.59653 27.3807 5.49564 27.3866L9.25203 23.9838ZM14.051 28.4627V36.7153H10.6345V28.4627H14.051ZM15.1368 28.4627H18.5531V36.7153H15.1368V28.4627ZM28.643 28.4627H32.0594V36.7153H28.643V28.4627ZM25.4818 9.28224C25.6031 9.17251 25.7603 9.11692 25.923 9.12451C26.0863 9.13256 26.2366 9.20378 26.3464 9.32495L31.065 14.534C31.2916 14.7841 31.2724 15.172 31.0223 15.3986L28.944 17.2811L23.4034 11.165L25.4818 9.28224ZM12.0683 19.9677L5.55954 18.1621L6.47291 14.87L14.4251 17.0763L14.1447 18.0871L12.0683 19.9677ZM7.6765 10.5317L9.83208 11.1297C9.88079 11.1431 9.9295 11.1497 9.9775 11.1497C10.2154 11.1497 10.4337 10.9921 10.5004 10.7517C10.5805 10.4628 10.4113 10.1637 10.1224 10.0836L7.96679 9.48548L8.88003 6.19348L16.8323 8.39962L15.9189 11.6916L12.0138 10.6083C11.7249 10.5281 11.4258 10.6972 11.3455 10.9863C11.2654 11.2751 11.4346 11.5743 11.7235 11.6544L15.6286 12.7379L14.7154 16.0298L6.76315 13.8239L7.6765 10.5317ZM9.91997 2.44496C9.96373 2.28746 10.0661 2.15638 10.2083 2.07589C10.3506 1.9954 10.5157 1.97514 10.6733 2.01885L17.4461 3.89777C17.6037 3.9415 17.7346 4.04391 17.8151 4.18621C17.8957 4.32852 17.9158 4.49361 17.8723 4.65111L17.1224 7.35344L9.17032 5.14729L9.91997 2.44496ZM1.67408 32.5889C1.67408 30.3137 3.52515 28.4627 5.80035 28.4627H9.54885V36.7153H5.80035C3.52515 36.7153 1.67408 34.8643 1.67408 32.5889ZM36.5616 36.1033C36.5616 36.4407 36.287 36.7153 35.9496 36.7153H33.1451V28.4627H35.9496C36.287 28.4627 36.5616 28.7373 36.5616 29.0747V36.1033Z"/>
<path d="M5.89049 30.5117C4.7455 30.5117 3.81396 31.4431 3.81396 32.5882C3.81396 33.7332 4.7455 34.6648 5.89049 34.6648C7.03547 34.6648 7.96701 33.7332 7.96701 32.5882C7.96701 31.4431 7.03547 30.5117 5.89049 30.5117ZM5.89049 33.5791C5.34416 33.5791 4.89968 33.1346 4.89968 32.5882C4.89968 32.0419 5.34416 31.5974 5.89049 31.5974C6.43681 31.5974 6.88131 32.0419 6.88131 32.5882C6.88131 33.1344 6.43681 33.5791 5.89049 33.5791Z"/>
</svg>
