<?xml version="1.0" standalone="no"?>
<!DOCTYPE svg PUBLIC "-//W3C//DTD SVG 20010904//EN"
 "http://www.w3.org/TR/2001/REC-SVG-20010904/DTD/svg10.dtd">
<svg xmlns="http://www.w3.org/2000/svg" width="36" height="36" viewBox="0 0 36 36" fill="hsl(262.1 83.3% 57.8%)">
    <path d="M34.4706 21.2943H24.4707V20.7061C24.4707 19.7315 23.6807 18.9414 22.706 18.9414H19.1766C18.7411 18.9428 18.3216 19.1064 18.0001 19.4002C17.6786 19.1064 17.2591 18.9428 16.8236 18.9414H13.2941C12.3195 18.9414 11.5294 19.7315 11.5294 20.7061V21.2943H1.5295C0.879757 21.2943 0.353027 21.8211 0.353027 22.4708V34.2354C0.353027 34.8852 0.879757 35.4119 1.5295 35.4119H34.4706C35.1204 35.4119 35.6471 34.8852 35.6471 34.2354V22.4708C35.6471 21.8211 35.1204 21.2943 34.4706 21.2943ZM19.1766 20.1178H22.706C23.0309 20.1178 23.2942 20.3812 23.2942 20.7061V21.2943H18.5883V20.7061C18.5883 20.3812 18.8517 20.1178 19.1766 20.1178ZM12.706 20.7061C12.706 20.3812 12.9693 20.1178 13.2941 20.1178H16.8236C17.1484 20.1178 17.4119 20.3812 17.4119 20.7061V21.2943H12.706V20.7061ZM12.1178 22.4708H24.4707V24.2355H11.5294V22.4708H12.1178ZM1.5295 25.4119H8.58838C8.91326 25.4119 9.17656 25.1486 9.17656 24.8237C9.17656 24.4988 8.91326 24.2355 8.58838 24.2355H1.5295V22.4708H10.3531V34.2354H1.5295V25.4119ZM11.5294 34.2354V25.4119H24.4707V34.2354H11.5294ZM25.6471 34.2354V22.4708H34.4706V24.2355H27.4118C27.0869 24.2355 26.8236 24.4988 26.8236 24.8237C26.8236 25.1486 27.0869 25.4119 27.4118 25.4119H34.4706V34.2354H25.6471Z"/>
    <path d="M22.1178 26.5898H13.8826C13.2328 26.5898 12.7061 27.1166 12.7061 27.7664V31.884C12.7061 32.5337 13.2328 33.0605 13.8826 33.0605H22.1178C22.7675 33.0605 23.2943 32.5337 23.2943 31.884V27.7664C23.2943 27.1166 22.7675 26.5898 22.1178 26.5898ZM13.8826 31.884V27.7664H22.1178V31.884H13.8826Z"/>
    <path d="M3.88253 26.5898H3.2943C2.96942 26.5898 2.70605 26.8531 2.70605 27.178C2.70605 27.5029 2.96942 27.7664 3.2943 27.7664H3.88253C4.20741 27.7664 4.47076 27.5029 4.47076 27.178C4.47076 26.8531 4.20741 26.5898 3.88253 26.5898Z"/>
    <path d="M28.0003 26.5898H27.4119C27.087 26.5898 26.8237 26.8531 26.8237 27.178C26.8237 27.5029 27.087 27.7664 27.4119 27.7664H28.0003C28.3251 27.7664 28.5884 27.5029 28.5884 27.178C28.5884 26.8531 28.3251 26.5898 28.0003 26.5898Z"/>
    <path d="M34.4706 0.117188H1.5295C0.879757 0.117188 0.353027 0.643917 0.353027 1.29366V14.823C0.353027 15.4728 0.879757 15.9995 1.5295 15.9995H10.3531C11.0029 15.9995 11.5294 15.4728 11.5294 14.823V13.6467H24.4707V14.823C24.4707 15.4728 24.9973 15.9995 25.6471 15.9995H34.4706C35.1204 15.9995 35.6471 15.4728 35.6471 14.823V1.29366C35.6471 0.643917 35.1204 0.117188 34.4706 0.117188ZM1.5295 1.29366H34.4706V2.47012H1.5295V1.29366ZM13.8825 3.6466V5.86078C13.8832 6.08366 13.757 6.28766 13.5571 6.38666L11.5294 7.40066V3.6466H13.8825ZM11.5294 8.71607L14.0837 7.43895C14.683 7.14178 15.0613 6.52978 15.0589 5.86078V3.6466H20.9413V5.86078C20.9389 6.52978 21.3172 7.14178 21.9165 7.43895L24.4707 8.71607V10.1172H11.5294V8.71607ZM24.4707 7.40066L22.4431 6.38666C22.2431 6.28766 22.117 6.08366 22.1177 5.86078V3.6466H24.4707V7.40066ZM1.5295 14.823V3.6466H10.3531V14.823H1.5295ZM11.5294 12.4701V11.2936H24.4707V12.4701H11.5294ZM25.6471 14.823V3.6466H34.4706V14.823H25.6471Z" />
    <path d="M3.88253 12.4688H3.2943C2.96942 12.4688 2.70605 12.732 2.70605 13.0569C2.70605 13.3818 2.96942 13.6453 3.2943 13.6453H3.88253C4.20741 13.6453 4.47076 13.3818 4.47076 13.0569C4.47076 12.732 4.20741 12.4688 3.88253 12.4688Z"/>
    <path d="M28.0003 12.4688H27.4119C27.087 12.4688 26.8237 12.732 26.8237 13.0569C26.8237 13.3818 27.087 13.6453 27.4119 13.6453H28.0003C28.3251 13.6453 28.5884 13.3818 28.5884 13.0569C28.5884 12.732 28.3251 12.4688 28.0003 12.4688Z"/>
</svg>
