<svg width="35" height="35" viewBox="0 0 58 60" fill="hsl(262.1 83.3% 57.8%)" xmlns="http://www.w3.org/2000/svg">
  <path
          d="M41.231,29.4c2.543,1.411 4.269,4.116 4.289,7.226l0,0.054c0,3.524 -2.191,6.536 -5.284,7.749"
          style="fill:none;stroke:hsl(262.1 83.3% 57.8%);stroke-width:1.5px;"
          id="path3" />

  <path
          d="M21.5,45c-2.554,0 -5.008,0 -7.18,0c-4.595,0 -8.32,-3.725 -8.32,-8.32l0,-0.054c0.027,-4.218 3.193,-7.692 7.28,-8.202l0,-0.064c0,-5.74 4.66,-10.4 10.4,-10.4c5.74,0 10.4,4.66 10.4,10.4"
          style="fill:none;stroke:hsl(262.1 83.3% 57.8%);stroke-width:1.5px;"
          id="path5" />

  <path
          d="M45.221,38.9c1.569,0 3.072,0 4.459,0c4.595,0 8.32,-3.725 8.32,-8.32l0,-0.054c-0.027,-4.218 -3.193,-7.692 -7.28,-8.202l0,-0.064c0,-5.74 -4.66,-10.4 -10.4,-10.4c-3.39,0 -6.404,1.626 -8.303,4.14"
          style="fill:none;stroke:hsl(262.1 83.3% 57.8%);stroke-width:1.5px;"
          id="path7" />

  <path
          d="M20.04,42l-6.002,0c-1.06,0 -2.077,-0.421 -2.827,-1.171c-0.75,-0.75 -1.171,-1.767 -1.171,-2.827c0,-0.001 0,-0.002 0,-0.002"
          style="fill:none;stroke:hsl(262.1 83.3% 57.8%);stroke-width:1.5px;"
          id="path9" />

  <path
          d="M23.389,55.695c0.726,-1.367 1.609,-2.657 2.636,-3.842c2.165,-2.498 4.204,-4.851 4.204,-4.851"
          style="fill:none;stroke:hsl(262.1 83.3% 57.8%);stroke-width:1.5px;"
          id="path11" />

  <path
          d="M24.713,53.367c0,0 -2.345,-4.997 -0.296,-9.835c1.535,-3.625 9.346,-6.882 13.165,-8.287c0.557,-0.203 1.176,-0.151 1.691,0.143c0.515,0.294 0.874,0.799 0.983,1.382c0.549,2.978 0.889,8.421 -2.36,13.37c-4.78,7.279 -10.397,5.72 -10.397,5.72"
          style="fill:none;stroke:hsl(262.1 83.3% 57.8%);stroke-width:1.5px;"
          id="path13" />

</svg>
