<svg width="32" height="32" viewBox="0 0 32 32" fill="hsl(262.1 83.3% 57.8%)" xmlns="http://www.w3.org/2000/svg">
<path d="M31.2619 24.4117H10.0796V22.5404C10.0796 22.1979 9.80168 21.92 9.45915 21.92H7.58785V0.737587C7.58785 0.394934 7.31009 0.117188 6.96738 0.117188H0.738075C0.395422 0.117188 0.117676 0.394934 0.117676 0.737587V31.2614C0.117676 31.6041 0.395422 31.8819 0.738075 31.8819H31.2619C31.6046 31.8819 31.8824 31.6041 31.8824 31.2614V25.0322C31.8824 24.6895 31.6046 24.4117 31.2619 24.4117ZM6.34709 1.35799V3.23186H4.47562C4.13309 3.23186 3.85532 3.50962 3.85532 3.85219C3.85532 4.19489 4.13309 4.47266 4.47562 4.47266H6.34709V6.3466H5.32903C4.9865 6.3466 4.70873 6.62436 4.70873 6.96689C4.70873 7.3096 4.9865 7.58736 5.32903 7.58736H6.34709V9.46131H4.47562C4.13309 9.46131 3.85532 9.73889 3.85532 10.0816C3.85532 10.4241 4.13309 10.7021 4.47562 10.7021H6.34709V12.5758H5.32903C4.9865 12.5758 4.70873 12.8536 4.70873 13.1963C4.70873 13.5388 4.9865 13.8168 5.32903 13.8168H6.34709V15.6905H4.47562C4.13309 15.6905 3.85532 15.9685 3.85532 16.311C3.85532 16.6535 4.13309 16.9313 4.47562 16.9313H6.34709V18.8052H5.32903C4.9865 18.8052 4.70873 19.083 4.70873 19.4257C4.70873 19.7682 4.9865 20.046 5.32903 20.046H6.34709V21.92H1.35848V1.35799H6.34709ZM1.35848 23.1609H8.83868V30.6411H1.35848V23.1609ZM30.6416 30.6411H10.0796V25.6525H11.9534V28.1469C11.9534 28.4894 12.2311 28.7672 12.5739 28.7672C12.9164 28.7672 13.1943 28.4894 13.1943 28.1469V25.6525H15.0681V27.2908C15.0681 27.6335 15.3459 27.9113 15.6886 27.9113C16.0311 27.9113 16.3089 27.6335 16.3089 27.2908V25.6525H18.1828V28.1469C18.1828 28.4894 18.4606 28.7672 18.8033 28.7672C19.1458 28.7672 19.4236 28.4894 19.4236 28.1469V25.6525H21.2975V27.2908C21.2975 27.6335 21.5753 27.9113 21.9178 27.9113C22.2605 27.9113 22.5383 27.6335 22.5383 27.2908V25.6525H24.4122V28.1469C24.4122 28.4894 24.69 28.7672 25.0325 28.7672C25.3752 28.7672 25.653 28.4894 25.653 28.1469V25.6525H27.5269V27.2908C27.5269 27.6335 27.8047 27.9113 28.1472 27.9113C28.4899 27.9113 28.7677 27.6335 28.7677 27.2908V25.6525H30.6416V30.6411Z"/>
<path d="M10.4417 17.8842L19.4998 22.5672C19.503 22.5687 19.5063 22.57 19.5095 22.5716C19.6888 22.6603 19.891 22.6552 20.0597 22.5716C20.092 22.5559 27.5169 18.7166 29.1275 17.884C29.3184 17.7885 29.463 17.5767 29.463 17.3329C29.4628 14.8351 29.4631 6.75715 29.4624 6.70739C29.451 6.28438 29.0903 6.1515 29.0841 6.14639L20.0384 2.09331C19.8769 2.02098 19.6925 2.02098 19.531 2.09331L10.4853 6.14656C10.4792 6.15186 10.1064 6.29427 10.1064 6.71815V17.333C10.1064 17.5755 10.2487 17.7874 10.4417 17.8842ZM28.2222 16.9554L20.4051 20.9969V11.7788L28.2222 7.73727V16.9554ZM19.1643 20.9969L11.3472 16.9554V7.73727L19.1643 11.7788V20.9969ZM19.7846 3.33934L27.4145 6.75803L19.7846 10.7027L12.1549 6.75803L19.7846 3.33934Z"/>
</svg>
